<?xml version="1.0" encoding="UTF-8"?>
<!DOCTYPE svg PUBLIC "-//W3C//DTD SVG 1.1//EN" "http://www.w3.org/Graphics/SVG/1.1/DTD/svg11.dtd">
<!-- Creator: CorelDRAW X7 -->
<svg xmlns="http://www.w3.org/2000/svg" xml:space="preserve" width="2329px" height="444px" version="1.1" style="shape-rendering:geometricPrecision; text-rendering:geometricPrecision; image-rendering:optimizeQuality; fill-rule:evenodd; clip-rule:evenodd"
viewBox="0 0 3624 691"
 xmlns:xlink="http://www.w3.org/1999/xlink">
 <defs>
  <style type="text/css">
   <![CDATA[
    .fil0 {fill:#2B2A29;fill-rule:nonzero}
   ]]>
  </style>
 </defs>
 <g id="Layer_x0020_1">
  <metadata id="CorelCorpID_0Corel-Layer"/>
  <g id="_2291264298256">
   <path class="fil0" d="M13 164c62,0 110,27 144,83 34,-56 81,-83 143,-83l13 0 0 62c-78,1 -126,49 -126,118 0,69 48,117 126,119l0 61 -9 0c-65,0 -112,-27 -147,-82 -35,55 -84,82 -149,82l-8 0 0 -61c78,-2 127,-50 127,-119 0,-69 -49,-117 -127,-118l0 -62 13 0z"/>
   <path class="fil0" d="M525 531c-32,0 -63,-9 -90,-25 -58,-36 -91,-95 -91,-162 0,-51 19,-96 53,-132 35,-36 80,-55 129,-55 72,0 131,39 167,112l-235 131 -27 -49 175 -97c-22,-24 -49,-36 -81,-36 -63,0 -114,53 -114,125 0,71 51,125 114,125 60,0 105,-42 116,-113l65 10c-18,104 -89,166 -181,166z"/>
   <path class="fil0" d="M772 0l64 0 0 199c29,-27 61,-42 100,-42 87,0 140,60 140,170l0 197 -64 0 0 -208c0,-61 -31,-96 -85,-96 -52,0 -91,41 -91,110l0 194 -64 0 0 -524z"/>
   <path class="fil0" d="M1435 344c0,-76 -48,-126 -114,-126 -67,0 -116,51 -116,124 0,75 51,127 119,127 31,0 60,-11 90,-33l0 69c-30,16 -62,25 -98,25 -34,0 -69,-12 -96,-30 -52,-36 -80,-92 -80,-156 0,-109 77,-186 180,-186 69,0 130,36 160,97 19,37 20,74 20,118l0 151 -65 0 0 -180z"/>
   <path class="fil0" d="M1577 328c0,-109 64,-170 153,-170 89,0 152,61 152,170l0 196 -64 0 0 -208c0,-58 -37,-96 -88,-96 -51,0 -89,38 -89,96l0 208 -64 0 0 -196z"/>
   <path class="fil0" d="M2121 691c-35,0 -72,-7 -113,-21l14 -61c39,13 72,20 101,20 72,0 118,-44 118,-120l0 -165c0,-76 -48,-126 -115,-126 -67,0 -116,51 -116,124 0,75 51,127 119,127 31,0 60,-11 90,-33l0 69c-29,16 -62,25 -98,25 -34,0 -69,-12 -96,-30 -52,-36 -80,-92 -80,-156 0,-109 77,-186 180,-186 69,0 130,36 160,97 19,37 20,74 20,118l0 130c0,118 -71,188 -184,188z"/>
   <path class="fil0" d="M2364 164c62,0 110,27 144,83 35,-56 81,-83 143,-83l13 0 0 62c-78,1 -126,49 -126,118 0,69 48,117 126,119l0 61 -8 0c-65,0 -113,-27 -148,-82 -34,55 -83,82 -148,82l-9 0 0 -61c78,-2 127,-50 127,-119 0,-69 -49,-117 -127,-118l0 -62 13 0z"/>
   <path class="fil0" d="M2877 468c63,0 115,-55 115,-125 0,-71 -52,-125 -115,-125 -63,0 -115,54 -115,125 0,70 52,125 115,125zm-128 -256c35,-36 79,-54 128,-54 49,0 94,18 128,54 35,35 53,81 53,132 0,50 -18,97 -53,132 -34,36 -79,54 -128,54 -49,0 -93,-18 -128,-54 -35,-36 -54,-82 -54,-132 0,-51 19,-96 54,-132z"/>
   <path class="fil0" d="M3120 316c0,-101 58,-158 141,-158 45,0 84,19 111,55 28,-37 66,-55 110,-55 83,0 142,57 142,158l0 208 -64 0 0 -220c0,-51 -32,-84 -78,-84 -46,0 -78,33 -78,84l0 220 -64 0 0 -220c0,-51 -33,-84 -79,-84 -45,0 -78,33 -78,84l0 220 -63 0 0 -208z"/>
  </g>
 </g>
</svg>
